<?xml version="1.0" encoding="utf-8"?>
<!-- Generator: Adobe Illustrator 23.0.0, SVG Export Plug-In . SVG Version: 6.00 Build 0)  -->
<svg version="1.1" id="Layer_1" xmlns="http://www.w3.org/2000/svg" xmlns:xlink="http://www.w3.org/1999/xlink" x="0px" y="0px"
	 viewBox="0 0 377.5 524" enable-background="new 0 0 377.5 524" xml:space="preserve">
<g id="D1">
	<image overflow="visible" width="414" height="564" xlink:href="65AFD591335544D6.png"  transform="matrix(1 0 0 1 0 -36.011)">
	</image>
</g>
<g id="D2" opacity="0.7">
	<image overflow="visible" width="410" height="560" xlink:href="65AFD591335544DA.png"  transform="matrix(1 0 0 1 2 -34.011)">
	</image>
</g>
<g id="D3">
	<image overflow="visible" width="410" height="560" xlink:href="65AFD591335544DD.png"  transform="matrix(1 0 0 1 2 -34.011)">
	</image>
</g>
<g id="D4">
	<image overflow="visible" width="410" height="560" xlink:href="65AFD591335544DE.png"  transform="matrix(1 0 0 1 2 -34.011)">
	</image>
</g>
<g id="D5">
	<path fill="none" stroke="#0084AA" stroke-width="2" stroke-linecap="round" stroke-linejoin="round" stroke-miterlimit="10" d="
		M358.7,331.9c10.1-27.1,15.9-58.8,15.8-95.9C374-9.5,156.5,1,118.5,4C103,4.5,103,28.5,103,28.5v111.8"/>
	<path fill="none" stroke="#0084AA" stroke-width="2" stroke-linecap="round" stroke-linejoin="round" stroke-miterlimit="10" d="
		M103,185.3v190.4c0,3.2,2.6,5.8,5.8,5.8h22.4c3.2,0,5.7-2.6,5.7-5.8L133,42c0,0,0.5-12,9.5-12S336.1,34.4,337,222.5
		c0.7,146.1-91,217-201,231c-3.3,0.4,0.3-14.3-1-19.6c-0.6-2.5-3-4.2-5.6-3.9c-9.4,1.1-19,1.7-24.5,1.9c-2.9,0.1-5.5,1.9-5.6,4.8
		c-0.2,6.7-0.1,37.2,0.2,45.2c0.1,2.5,2,7,8,7c26.6,0,155.1-11.3,223.7-105.6"/>
	<path fill="none" stroke="#0084AA" stroke-width="2" stroke-linecap="round" stroke-linejoin="round" stroke-miterlimit="10" d="
		M256.7,100.5C228.9,70.7,191.2,55.3,152,52.4c-3.8-0.3-7,2.7-7,6.5c0,10.8,0.1,16.6,0.2,19.8c0.1,2.1,1.7,3.8,3.8,3.9
		c19,1.2,107.8,13.8,114.9,145.9c8.5,156.9-127,164-182,163c-17-0.3-15-24-15-24l-0.3-35.6"/>
	<path fill="none" stroke="#0084AA" stroke-width="2" stroke-linecap="round" stroke-linejoin="round" stroke-miterlimit="10" d="
		M66.5,290.8L65,86.5c0-5.4,2-8,6-8h20.4c2,0,3.6-1.6,3.6-3.6V51.8c0-1.3-1-2.3-2.3-2.4c-8.6-0.2-38.9-0.8-45.7,0.1
		c-6,0.8-7.3,8.1-7.5,14.5v340c0,0-1,17,12,17s250.5,22.5,250-189c0-36.5-6.7-66.8-18.3-91.6"/>
</g>
<g id="D6">
	<image overflow="visible" width="410" height="560" xlink:href="65AFD591335544DC.png"  transform="matrix(1 0 0 1 2 -34.011)">
	</image>
</g>
<g id="D7" opacity="0.7">
	<image overflow="visible" width="410" height="560" xlink:href="65AFD591335544DB.png"  transform="matrix(1 0 0 1 2 -34.011)">
	</image>
</g>
<g id="D8" opacity="0.7">
	<image overflow="visible" width="410" height="560" xlink:href="65AFD591335544D5.png"  transform="matrix(1 0 0 1 2 -34.011)">
	</image>
</g>
<g id="dot">
	<g>
		<image overflow="visible" width="119" height="119" xlink:href="65AFD591335544D7.png"  transform="matrix(1 0 0 1 1 403.989)">
		</image>
	</g>
	<g>
		<image overflow="visible" width="119" height="119" xlink:href="65AFD591335544D4.png"  transform="matrix(1 0 0 1 1 403.989)">
		</image>
	</g>
	<g>
		<image overflow="visible" width="119" height="119" xlink:href="B269DDFC6B52F349.png"  transform="matrix(1 0 0 1 1 403.989)">
		</image>
	</g>
	<g>
		<image overflow="visible" width="121" height="121" xlink:href="B269DDFC6B52F34F.png"  transform="matrix(1 0 0 1 0 402.989)">
		</image>
	</g>
	<circle fill="none" stroke="#D90E82" stroke-width="3" stroke-miterlimit="10" cx="60.5" cy="463.5" r="23"/>
</g>
</svg>
