<?xml version="1.0" encoding="utf-8"?>
<!-- Generator: Adobe Illustrator 23.0.0, SVG Export Plug-In . SVG Version: 6.00 Build 0)  -->
<svg version="1.1" xmlns="http://www.w3.org/2000/svg" xmlns:xlink="http://www.w3.org/1999/xlink" x="0px" y="0px"
	 viewBox="0 0 118 104" enable-background="new 0 0 118 104" xml:space="preserve">
<g id="Layer_1">
	<g id="square_x5F_outside">
		<path d="M115,3v98H3V3H115 M117,1H1v102h116V1L117,1z"/>
	</g>
	<g id="square_x5F_pink" display="none">
		<path display="inline" fill="#E77171" d="M115,3v98H3V3H115 M117,1H1v102h116V1L117,1z"/>
	</g>
	<g id="square_x5F_blue" display="none">
		<path display="inline" fill="#448CCB" d="M115,3v98H3V3H115 M117,1H1v102h116V1L117,1z"/>
	</g>
	<g id="D_2_">
		<g id="d_x5F_fill_x5F_black_2_">
			<path fill-rule="evenodd" clip-rule="evenodd" fill="#E77171" d="M53.9,72.1c-4.3,0-7.8-0.4-9.4-0.7V32.8
				c3.2-0.5,6.4-0.7,9.4-0.7c9.9,0,17.7,2.7,22.1,7.7c3.5,4,4.9,9.3,4.1,15.9C78.5,69.3,65,72.1,53.9,72.1
				C53.9,72.1,53.9,72.1,53.9,72.1z"/>
			<path fill="#E77171" d="M53.9,33.1c9.6,0,17.2,2.6,21.4,7.4c3.3,3.8,4.6,8.8,3.9,15.1c-1.5,12.9-14.6,15.6-25.2,15.6
				c-3.6,0-6.6-0.3-8.4-0.5V33.7C48.4,33.3,51.2,33.1,53.9,33.1 M53.9,31.1c-3.3,0-6.8,0.3-10.4,0.9v40.4c0,0,4.5,0.8,10.4,0.8
				c10.5,0,25.5-2.6,27.2-17.3C83.2,38.4,70.2,31.1,53.9,31.1L53.9,31.1z"/>
		</g>
		<g id="d_x5F_outline_2_">
			<g>
				<path fill="#E77171" d="M42.9,73.4V31.6h16.8c13.4,0,22.5,8.4,22.5,20.9s-9,20.9-22.5,20.9H42.9z M43.3,73.3h16.2
					c12.1,0,22.6-9.7,22.6-20.7c0-11-10.6-20.7-22.6-20.7H43.3V73.3z"/>
				<path fill="#E77171" d="M59.8,30.6H41.9v43.8h17.8c14,0,23.5-9,23.5-21.9S73.8,30.6,59.8,30.6L59.8,30.6z M44.3,72.3V32.9h15.2
					c11.6,0,21.6,9.2,21.6,19.7c0,10.5-10,19.7-21.6,19.7H44.3L44.3,72.3z"/>
			</g>
		</g>
	</g>
	<g id="D_1_" display="none">
		<path id="d_x5F_fill_x5F_black_1_" display="inline" fill-rule="evenodd" clip-rule="evenodd" fill="#448CCB" d="M43.5,32v40.4
			c0,0,34.8,6.4,37.6-16.5C83.6,34.8,64.3,28.5,43.5,32z"/>
		<g id="d_x5F_outline_1_" display="inline">
			<path fill="#448CCB" d="M41.9,30.6h17.8c14,0,23.5,9,23.5,21.9s-9.5,21.9-23.5,21.9H41.9V30.6z M59.5,72.3
				c11.6,0,21.6-9.2,21.6-19.7c0-10.5-10-19.7-21.6-19.7H44.3v39.5H59.5z"/>
		</g>
	</g>
	<g id="D">
		<path id="d_x5F_fill_x5F_black" fill-rule="evenodd" clip-rule="evenodd" fill="#212121" d="M43.5,32v40.4c0,0,34.8,6.4,37.6-16.5
			C83.6,34.8,64.3,28.5,43.5,32z"/>
		<g id="d_x5F_outline">
			<path fill="#212121" d="M41.9,30.6h17.8c14,0,23.5,9,23.5,21.9s-9.5,21.9-23.5,21.9H41.9V30.6z M59.5,72.3
				c11.6,0,21.6-9.2,21.6-19.7c0-10.5-10-19.7-21.6-19.7H44.3v39.5H59.5z"/>
		</g>
	</g>
	<g id="pink" display="none">
		<g id="right-bracket_2_" display="inline">
			<linearGradient id="SVGID_1_" gradientUnits="userSpaceOnUse" x1="65.4467" y1="33.5059" x2="111.5135" y2="33.5059">
				<stop  offset="0" style="stop-color:#FDACAB"/>
				<stop  offset="0.2926" style="stop-color:#F89F9E"/>
				<stop  offset="0.8318" style="stop-color:#EB7D7D"/>
				<stop  offset="1" style="stop-color:#E77171"/>
			</linearGradient>
			<path fill="url(#SVGID_1_)" d="M108.9,55.7l-43-42c-0.6-0.6-0.7-1.6-0.1-2.3l0,0c0.6-0.7,1.6-0.7,2.2-0.1l43,42
				c0.6,0.6,0.7,1.6,0.1,2.3l0,0C110.5,56.3,109.5,56.3,108.9,55.7z"/>
			<path fill="#FDACAB" d="M110.9,55.9L65.6,94c-0.7,0.6-1.6,0.4-2.2-0.3h0c-0.5-0.7-0.4-1.7,0.2-2.3L109,53.4
				c0.7-0.6,1.6-0.4,2.2,0.3l0,0C111.7,54.3,111.6,55.4,110.9,55.9z"/>
		</g>
		<g id="left-bracket_2_" display="inline">
			
				<linearGradient id="SVGID_2_" gradientUnits="userSpaceOnUse" x1="166.8867" y1="33.4042" x2="118.6406" y2="30.1422" gradientTransform="matrix(-0.9977 -6.745843e-02 -6.745843e-02 0.9977 175.4485 9.4186)">
				<stop  offset="0" style="stop-color:#E77171"/>
				<stop  offset="0.3252" style="stop-color:#F08989"/>
				<stop  offset="0.7463" style="stop-color:#F9A3A2"/>
				<stop  offset="1" style="stop-color:#FDACAB"/>
			</linearGradient>
			<path fill="url(#SVGID_2_)" d="M9.2,52.2l45.3-38.9c0.7-0.6,0.8-1.6,0.2-2.3v0c-0.5-0.7-1.5-0.8-2.2-0.2L7.3,49.7
				C6.6,50.2,6.5,51.3,7,52h0C7.6,52.7,8.6,52.8,9.2,52.2z"/>
			<path fill="#FDACAB" d="M7.2,52.3l42.6,41.2c0.6,0.6,1.6,0.5,2.2-0.1h0c0.6-0.7,0.5-1.7-0.1-2.3L9.2,49.9
				c-0.6-0.6-1.6-0.5-2.2,0.1h0C6.5,50.6,6.5,51.7,7.2,52.3z"/>
		</g>
	</g>
	<g id="blue" display="none">
		<g id="right-bracket" display="inline">
			<linearGradient id="SVGID_3_" gradientUnits="userSpaceOnUse" x1="65.4467" y1="33.5059" x2="111.5135" y2="33.5059">
				<stop  offset="0" style="stop-color:#BEE1F4"/>
				<stop  offset="0.202" style="stop-color:#BADFF3"/>
				<stop  offset="0.3806" style="stop-color:#B0D7EF"/>
				<stop  offset="0.5503" style="stop-color:#9ECAE9"/>
				<stop  offset="0.7145" style="stop-color:#84B9E1"/>
				<stop  offset="0.8733" style="stop-color:#64A2D6"/>
				<stop  offset="1" style="stop-color:#448CCB"/>
			</linearGradient>
			<path fill="url(#SVGID_3_)" d="M108.9,55.7l-43-42c-0.6-0.6-0.7-1.6-0.1-2.3l0,0c0.6-0.7,1.6-0.7,2.2-0.1l43,42
				c0.6,0.6,0.7,1.6,0.1,2.3l0,0C110.5,56.3,109.5,56.3,108.9,55.7z"/>
			<path fill="#BEE1F4" d="M110.9,55.9L65.6,94c-0.7,0.6-1.6,0.4-2.2-0.3h0c-0.5-0.7-0.4-1.7,0.2-2.3L109,53.4
				c0.7-0.6,1.6-0.4,2.2,0.3l0,0C111.7,54.3,111.6,55.4,110.9,55.9z"/>
		</g>
		<g id="left-bracket" display="inline">
			
				<linearGradient id="SVGID_4_" gradientUnits="userSpaceOnUse" x1="119.9482" y1="31.7732" x2="165.5792" y2="31.7732" gradientTransform="matrix(-0.9977 -6.745843e-02 -6.745843e-02 0.9977 175.4485 9.4186)">
				<stop  offset="0" style="stop-color:#BEE1F4"/>
				<stop  offset="0.202" style="stop-color:#BADFF3"/>
				<stop  offset="0.3806" style="stop-color:#B0D7EF"/>
				<stop  offset="0.5503" style="stop-color:#9ECAE9"/>
				<stop  offset="0.7145" style="stop-color:#84B9E1"/>
				<stop  offset="0.8733" style="stop-color:#64A2D6"/>
				<stop  offset="1" style="stop-color:#448CCB"/>
			</linearGradient>
			<path fill="url(#SVGID_4_)" d="M9.2,52.2l45.3-38.9c0.7-0.6,0.8-1.6,0.2-2.3v0c-0.5-0.7-1.5-0.8-2.2-0.2L7.3,49.7
				C6.6,50.2,6.5,51.3,7,52h0C7.6,52.7,8.6,52.8,9.2,52.2z"/>
			<path fill="#BEE1F4" d="M7.2,52.3l42.6,41.2c0.6,0.6,1.6,0.5,2.2-0.1h0c0.6-0.7,0.5-1.7-0.1-2.3L9.2,49.9
				c-0.6-0.6-1.6-0.5-2.2,0.1h0C6.5,50.6,6.5,51.7,7.2,52.3z"/>
		</g>
	</g>
	<g id="grey">
		<g id="right-bracket_1_">
			<linearGradient id="SVGID_5_" gradientUnits="userSpaceOnUse" x1="65.4467" y1="33.5059" x2="111.5135" y2="33.5059">
				<stop  offset="0" style="stop-color:#D9D9D9"/>
				<stop  offset="0.1681" style="stop-color:#D5D5D5"/>
				<stop  offset="0.3168" style="stop-color:#CACACA"/>
				<stop  offset="0.458" style="stop-color:#B8B8B8"/>
				<stop  offset="0.5948" style="stop-color:#9F9F9F"/>
				<stop  offset="0.7283" style="stop-color:#7E7E7E"/>
				<stop  offset="0.8594" style="stop-color:#565656"/>
				<stop  offset="0.9863" style="stop-color:#272727"/>
				<stop  offset="1" style="stop-color:#212121"/>
			</linearGradient>
			<path fill="url(#SVGID_5_)" d="M108.9,55.7l-43-42c-0.6-0.6-0.7-1.6-0.1-2.3l0,0c0.6-0.7,1.6-0.7,2.2-0.1l43,42
				c0.6,0.6,0.7,1.6,0.1,2.3l0,0C110.5,56.3,109.5,56.3,108.9,55.7z"/>
			<path fill="#D9D9D9" d="M110.9,55.9L65.6,94c-0.7,0.6-1.6,0.4-2.2-0.3h0c-0.5-0.7-0.4-1.7,0.2-2.3L109,53.4
				c0.7-0.6,1.6-0.4,2.2,0.3l0,0C111.7,54.3,111.6,55.4,110.9,55.9z"/>
		</g>
		<g id="left-bracket_1_">
			
				<linearGradient id="SVGID_6_" gradientUnits="userSpaceOnUse" x1="119.9482" y1="31.7732" x2="165.5792" y2="31.7732" gradientTransform="matrix(-0.9977 -6.745843e-02 -6.745843e-02 0.9977 175.4485 9.4186)">
				<stop  offset="0" style="stop-color:#D9D9D9"/>
				<stop  offset="0.1737" style="stop-color:#D5D5D5"/>
				<stop  offset="0.3272" style="stop-color:#CACACA"/>
				<stop  offset="0.4731" style="stop-color:#B8B8B8"/>
				<stop  offset="0.6143" style="stop-color:#9F9F9F"/>
				<stop  offset="0.7523" style="stop-color:#7E7E7E"/>
				<stop  offset="0.8857" style="stop-color:#565656"/>
				<stop  offset="1" style="stop-color:#2E2E2E"/>
			</linearGradient>
			<path fill="url(#SVGID_6_)" d="M9.2,52.2l45.3-38.9c0.7-0.6,0.8-1.6,0.2-2.3v0c-0.5-0.7-1.5-0.8-2.2-0.2L7.3,49.7
				C6.6,50.2,6.5,51.3,7,52h0C7.6,52.7,8.6,52.8,9.2,52.2z"/>
			<path fill="#D9D9D9" d="M7.2,52.3l42.6,41.2c0.6,0.6,1.6,0.5,2.2-0.1h0c0.6-0.7,0.5-1.7-0.1-2.3L9.2,49.9
				c-0.6-0.6-1.6-0.5-2.2,0.1h0C6.5,50.6,6.5,51.7,7.2,52.3z"/>
		</g>
	</g>
</g>
<g id="Layer_3">
	<g id="inner_x5F_square">
	</g>
</g>
</svg>
