<?xml version="1.0" encoding="utf-8"?>
<!-- Generator: Adobe Illustrator 23.0.0, SVG Export Plug-In . SVG Version: 6.00 Build 0)  -->
<svg version="1.1" xmlns="http://www.w3.org/2000/svg" xmlns:xlink="http://www.w3.org/1999/xlink" x="0px" y="0px"
	 viewBox="0 0 116 102" enable-background="new 0 0 116 102" xml:space="preserve">
<g id="Layer_1">
	<g id="square_x5F_outside">
		<path d="M113,3v96H3V3H113 M116,0H0v102h116V0L116,0z"/>
	</g>
	<g>
		<path id="d_x5F_fill_x5F_black" fill-rule="evenodd" clip-rule="evenodd" fill="#212121" d="M41.9,31.5v40.4
			c0,0,34.8,6.4,37.6-16.5C82.1,34.3,62.7,28,41.9,31.5z"/>
		<g id="d_x5F_outline">
			<path fill="#212121" d="M40.3,30.1h17.8c14,0,23.5,9,23.5,21.9s-9.5,21.9-23.5,21.9H40.3V30.1z M57.9,71.8
				c11.6,0,21.6-9.2,21.6-19.7c0-10.5-10-19.7-21.6-19.7H42.8v39.5H57.9z"/>
		</g>
	</g>
	<g id="right-bracket">
		<linearGradient id="SVGID_1_" gradientUnits="userSpaceOnUse" x1="63.878" y1="33.0059" x2="109.9449" y2="33.0059">
			<stop  offset="0" style="stop-color:#BEE1F4"/>
			<stop  offset="0.202" style="stop-color:#BADFF3"/>
			<stop  offset="0.3806" style="stop-color:#B0D7EF"/>
			<stop  offset="0.5503" style="stop-color:#9ECAE9"/>
			<stop  offset="0.7145" style="stop-color:#84B9E1"/>
			<stop  offset="0.8733" style="stop-color:#64A2D6"/>
			<stop  offset="1" style="stop-color:#448CCB"/>
		</linearGradient>
		<path fill="url(#SVGID_1_)" d="M107.3,55.2l-43-42c-0.6-0.6-0.7-1.6-0.1-2.3v0c0.6-0.7,1.6-0.7,2.2-0.1l43,42
			c0.6,0.6,0.7,1.6,0.1,2.3v0C108.9,55.8,107.9,55.8,107.3,55.2z"/>
		<path fill="#BEE1F4" d="M109.4,55.4L64,93.5c-0.7,0.6-1.6,0.4-2.2-0.3h0c-0.5-0.7-0.4-1.7,0.2-2.3l45.4-38.1
			c0.7-0.6,1.6-0.4,2.2,0.3l0,0C110.1,53.8,110,54.9,109.4,55.4z"/>
	</g>
	<g id="left-bracket">
		
			<linearGradient id="SVGID_2_" gradientUnits="userSpaceOnUse" x1="118.3796" y1="31.2732" x2="164.0106" y2="31.2732" gradientTransform="matrix(-0.9977 -6.745843e-02 -6.745843e-02 0.9977 172.2811 9.3117)">
			<stop  offset="0" style="stop-color:#BEE1F4"/>
			<stop  offset="0.202" style="stop-color:#BADFF3"/>
			<stop  offset="0.3806" style="stop-color:#B0D7EF"/>
			<stop  offset="0.5503" style="stop-color:#9ECAE9"/>
			<stop  offset="0.7145" style="stop-color:#84B9E1"/>
			<stop  offset="0.8733" style="stop-color:#64A2D6"/>
			<stop  offset="1" style="stop-color:#448CCB"/>
		</linearGradient>
		<path fill="url(#SVGID_2_)" d="M7.6,51.7l45.3-38.9c0.7-0.6,0.8-1.6,0.2-2.3v0c-0.5-0.7-1.5-0.8-2.2-0.2L5.7,49.2
			c-0.7,0.6-0.8,1.6-0.2,2.3h0C6,52.2,7,52.3,7.6,51.7z"/>
		<path fill="#BEE1F4" d="M5.6,51.8L48.2,93c0.6,0.6,1.6,0.5,2.2-0.1h0c0.6-0.7,0.5-1.7-0.1-2.3L7.7,49.4c-0.6-0.6-1.6-0.5-2.2,0.1
			h0C4.9,50.1,5,51.2,5.6,51.8z"/>
	</g>
</g>
<g id="Layer_3">
	<g id="inner_x5F_square">
	</g>
</g>
</svg>
