<svg xmlns="http://www.w3.org/2000/svg" viewBox="0 0 1370.01 622.805">
  <defs>
    <style>
      .cls-1 {
        fill: none;
        stroke: #e92a55;
        stroke-width: 3px;
      }

      .cls-2 {
        fill: #e5e6e6;
        font-size: 32px;
        font-family: Montserrat-Regular, Montserrat;
      }

      .cls-3 {
        fill: #e92a55;
      }
    </style>
  </defs>
  <g id="map_svg" transform="translate(-281 -2594)">
    <path id="line" class="cls-1" d="M2529.723,3861.364H2864" transform="translate(-1958 -1220)"/>
    <path id="line-2" data-name="line" class="cls-1" d="M2529.723,3863.116h652.925" transform="translate(-2115.121 -828.969)"/>
    <path id="line-3" data-name="line" class="cls-1" d="M2529.723,3883.364h588.063" transform="translate(-1827.723 -1030.364)"/>
    <text id="I_came_from_Brazil" data-name="I came from Brazil" class="cls-2" transform="translate(756 2625)"><tspan x="-147.008" y="0">I came from Brazil</tspan></text>
    <text id="There_I_graduated_in_Cinema_Video" data-name="There I graduated in Cinema &amp; Video" class="cls-2" transform="translate(762 3021)"><tspan x="-294.368" y="0">There I graduated in Cinema &amp; Video</tspan></text>
    <text id="Here_I_m_graduating_in_Interactive_Media_Design_Code" data-name="Here I’m graduating in Interactive Media Design &amp; Code" class="cls-2" transform="translate(960 3202)"><tspan x="-446.832" y="0">Here I’m graduating in Interactive Media Design &amp; Code</tspan></text>
    <text id="And_now_I_m_living_in_London_ON" data-name="And now I’m living in London/ON" class="cls-2" transform="translate(979 2837)"><tspan x="-266" y="0">And now I’m living in London/ON</tspan></text>
    <path id="film-solid" class="cls-3" d="M127.685,64h-2.093v5.233a3.149,3.149,0,0,1-3.14,3.14H111.986a3.149,3.149,0,0,1-3.14-3.14V64H25.118v5.233a3.149,3.149,0,0,1-3.14,3.14H11.513a3.149,3.149,0,0,1-3.14-3.14V64H6.28A6.265,6.265,0,0,0,0,70.28v87.914a6.265,6.265,0,0,0,6.28,6.28H8.373v-5.233a3.149,3.149,0,0,1,3.14-3.14H21.979a3.149,3.149,0,0,1,3.14,3.14v5.233h83.728v-5.233a3.149,3.149,0,0,1,3.14-3.14h10.466a3.149,3.149,0,0,1,3.14,3.14v5.233h2.093a6.265,6.265,0,0,0,6.28-6.28V70.28A6.265,6.265,0,0,0,127.685,64ZM25.118,144.588a3.149,3.149,0,0,1-3.14,3.14H11.513a3.149,3.149,0,0,1-3.14-3.14V134.122a3.149,3.149,0,0,1,3.14-3.14H21.979a3.149,3.149,0,0,1,3.14,3.14Zm0-25.118a3.149,3.149,0,0,1-3.14,3.14H11.513a3.149,3.149,0,0,1-3.14-3.14V109a3.149,3.149,0,0,1,3.14-3.14H21.979a3.149,3.149,0,0,1,3.14,3.14Zm0-25.118a3.149,3.149,0,0,1-3.14,3.14H11.513a3.149,3.149,0,0,1-3.14-3.14V83.885a3.149,3.149,0,0,1,3.14-3.14H21.979a3.149,3.149,0,0,1,3.14,3.14Zm71.169,54.423a3.149,3.149,0,0,1-3.14,3.14H40.817a3.149,3.149,0,0,1-3.14-3.14V123.656a3.149,3.149,0,0,1,3.14-3.14h52.33a3.149,3.149,0,0,1,3.14,3.14Zm0-43.957a3.149,3.149,0,0,1-3.14,3.14H40.817a3.149,3.149,0,0,1-3.14-3.14V79.7a3.149,3.149,0,0,1,3.14-3.14h52.33a3.149,3.149,0,0,1,3.14,3.14Zm29.3,39.771a3.149,3.149,0,0,1-3.14,3.14H111.986a3.149,3.149,0,0,1-3.14-3.14V134.122a3.149,3.149,0,0,1,3.14-3.14h10.466a3.149,3.149,0,0,1,3.14,3.14Zm0-25.118a3.149,3.149,0,0,1-3.14,3.14H111.986a3.149,3.149,0,0,1-3.14-3.14V109a3.149,3.149,0,0,1,3.14-3.14h10.466a3.149,3.149,0,0,1,3.14,3.14Zm0-25.118a3.149,3.149,0,0,1-3.14,3.14H111.986a3.149,3.149,0,0,1-3.14-3.14V83.885a3.149,3.149,0,0,1,3.14-3.14h10.466a3.149,3.149,0,0,1,3.14,3.14Z" transform="translate(281 2888.526)"/>
    <path id="Path_29" data-name="Path 29" class="cls-1" d="M2430.734,3859.375H2299.2v229.453" transform="translate(-1973 -1136)"/>
    <path id="Path_30" data-name="Path 30" class="cls-1" d="M2271.445,4336.3H3276.328l.9-147.712,1.3-214.491H3064.566" transform="translate(-1770 -1121)"/>
    <path id="laptop-code-solid" class="cls-3" d="M63.363,65.008a3.975,3.975,0,0,0,5.623,0L71.8,62.2a3.975,3.975,0,0,0,0-5.623L62.921,47.7l8.872-8.875a3.975,3.975,0,0,0,0-5.623l-2.81-2.81a3.975,3.975,0,0,0-5.623,0L48.866,44.891a3.975,3.975,0,0,0,0,5.623ZM87.217,62.2l2.81,2.81a3.975,3.975,0,0,0,5.623,0l14.495-14.495a3.975,3.975,0,0,0,0-5.623L95.65,30.4a3.975,3.975,0,0,0-5.623,0l-2.81,2.81a3.975,3.975,0,0,0,0,5.623L96.089,47.7l-8.872,8.875a3.975,3.975,0,0,0,0,5.623Zm67.818,41.156H94.795a7.832,7.832,0,0,1-8.134,7.951H71.555a8.437,8.437,0,0,1-8.142-7.951H3.975A3.987,3.987,0,0,0,0,107.332v3.975a15.948,15.948,0,0,0,15.9,15.9H143.109a15.948,15.948,0,0,0,15.9-15.9v-3.975A3.987,3.987,0,0,0,155.035,103.357ZM143.109,11.926A11.961,11.961,0,0,0,131.184,0H27.827A11.961,11.961,0,0,0,15.9,11.926v83.48H143.109Zm-15.9,67.579H31.8V15.9h95.406Z" transform="translate(1492 3087.792)"/>
    <path id="mobile-alt-solid" class="cls-3" d="M53.767,0H9.488A9.491,9.491,0,0,0,0,9.488V91.72a9.491,9.491,0,0,0,9.488,9.488H53.767a9.491,9.491,0,0,0,9.488-9.488V9.488A9.491,9.491,0,0,0,53.767,0ZM31.627,94.882a6.326,6.326,0,1,1,6.326-6.326A6.319,6.319,0,0,1,31.627,94.882ZM53.767,73.534a2.379,2.379,0,0,1-2.372,2.372H11.86a2.379,2.379,0,0,1-2.372-2.372V11.86A2.379,2.379,0,0,1,11.86,9.488H51.395a2.379,2.379,0,0,1,2.372,2.372Z" transform="translate(1428.745 3090.792)"/>
  </g>
</svg>
